<mxfile host="Electron" modified="2023-09-23T07:20:53.314Z" agent="Mozilla/5.0 (Windows NT 10.0; Win64; x64) AppleWebKit/537.36 (KHTML, like Gecko) draw.io/21.7.5 Chrome/114.0.5735.289 Electron/25.8.1 Safari/537.36" etag="wqfKmTSZtMjQLvMD4ouv" version="21.7.5" type="device">
  <diagram name="Страница — 1" id="kr7W5C3_PdznskIiB1WT">
    <mxGraphModel dx="2261" dy="844" grid="1" gridSize="10" guides="1" tooltips="1" connect="1" arrows="1" fold="1" page="1" pageScale="1" pageWidth="827" pageHeight="1169" math="0" shadow="0">
      <root>
        <mxCell id="0" />
        <mxCell id="1" parent="0" />
        <mxCell id="DRk0Qbnj9rj8NslgTjif-1" value="performer" style="swimlane;whiteSpace=wrap;html=1;startSize=50;" vertex="1" parent="1">
          <mxGeometry x="40" y="80" width="200" height="200" as="geometry" />
        </mxCell>
        <mxCell id="DRk0Qbnj9rj8NslgTjif-6" value="id&lt;br style=&quot;font-size: 17px;&quot;&gt;surname&lt;br style=&quot;font-size: 17px;&quot;&gt;name&lt;br style=&quot;font-size: 17px;&quot;&gt;fathername&lt;br style=&quot;font-size: 17px;&quot;&gt;instrumentid" style="text;whiteSpace=wrap;html=1;fontSize=17;align=center;" vertex="1" parent="DRk0Qbnj9rj8NslgTjif-1">
          <mxGeometry x="55.5" y="60" width="89" height="80" as="geometry" />
        </mxCell>
        <mxCell id="DRk0Qbnj9rj8NslgTjif-2" value="concertschedule" style="swimlane;whiteSpace=wrap;html=1;startSize=40;" vertex="1" parent="1">
          <mxGeometry x="320" y="200" width="200" height="200" as="geometry">
            <mxRectangle x="300" y="320" width="140" height="30" as="alternateBounds" />
          </mxGeometry>
        </mxCell>
        <mxCell id="DRk0Qbnj9rj8NslgTjif-3" value="&lt;div style=&quot;text-align: center;&quot;&gt;&lt;span style=&quot;font-size: 17px; background-color: initial;&quot;&gt;Id&lt;/span&gt;&lt;/div&gt;&lt;font style=&quot;font-size: 17px;&quot;&gt;&lt;div style=&quot;text-align: center;&quot;&gt;&lt;span style=&quot;background-color: initial;&quot;&gt;performerid&lt;/span&gt;&lt;/div&gt;&lt;div style=&quot;text-align: center;&quot;&gt;&lt;span style=&quot;background-color: initial;&quot;&gt;concerthallid&lt;/span&gt;&lt;/div&gt;&lt;div style=&quot;text-align: center;&quot;&gt;&lt;span style=&quot;background-color: initial;&quot;&gt;concertdate&lt;/span&gt;&lt;/div&gt;&lt;div style=&quot;text-align: center;&quot;&gt;&lt;span style=&quot;background-color: initial;&quot;&gt;priceticket&lt;/span&gt;&lt;/div&gt;&lt;/font&gt;" style="text;whiteSpace=wrap;html=1;" vertex="1" parent="DRk0Qbnj9rj8NslgTjif-2">
          <mxGeometry x="50" y="50" width="110" height="120" as="geometry" />
        </mxCell>
        <mxCell id="DRk0Qbnj9rj8NslgTjif-20" value="concerthall" style="swimlane;whiteSpace=wrap;html=1;startSize=40;" vertex="1" parent="1">
          <mxGeometry x="600" y="80" width="200" height="160" as="geometry" />
        </mxCell>
        <mxCell id="DRk0Qbnj9rj8NslgTjif-37" value="id&lt;br style=&quot;font-size: 16px;&quot;&gt;townid&lt;br style=&quot;font-size: 16px;&quot;&gt;name&lt;br style=&quot;font-size: 16px;&quot;&gt;availseats" style="text;whiteSpace=wrap;html=1;align=center;fontSize=16;" vertex="1" parent="DRk0Qbnj9rj8NslgTjif-20">
          <mxGeometry x="40" y="50" width="120" height="70" as="geometry" />
        </mxCell>
        <mxCell id="DRk0Qbnj9rj8NslgTjif-21" value="instrumentid" style="swimlane;whiteSpace=wrap;html=1;startSize=50;" vertex="1" parent="1">
          <mxGeometry x="40" y="360" width="200" height="120" as="geometry" />
        </mxCell>
        <mxCell id="DRk0Qbnj9rj8NslgTjif-22" value="id&lt;br style=&quot;font-size: 16px;&quot;&gt;name" style="text;html=1;align=center;verticalAlign=middle;resizable=0;points=[];autosize=1;strokeColor=none;fillColor=none;fontSize=16;" vertex="1" parent="DRk0Qbnj9rj8NslgTjif-21">
          <mxGeometry x="70" y="60" width="60" height="50" as="geometry" />
        </mxCell>
        <mxCell id="DRk0Qbnj9rj8NslgTjif-36" value="" style="endArrow=classic;html=1;rounded=0;" edge="1" parent="1">
          <mxGeometry width="50" height="50" relative="1" as="geometry">
            <mxPoint x="40" y="240" as="sourcePoint" />
            <mxPoint x="40" y="430" as="targetPoint" />
            <Array as="points">
              <mxPoint y="240" />
              <mxPoint y="430" />
            </Array>
          </mxGeometry>
        </mxCell>
        <mxCell id="DRk0Qbnj9rj8NslgTjif-38" value="" style="endArrow=classic;html=1;rounded=0;" edge="1" parent="1">
          <mxGeometry width="50" height="50" relative="1" as="geometry">
            <mxPoint x="520" y="310" as="sourcePoint" />
            <mxPoint x="600" y="140" as="targetPoint" />
            <Array as="points">
              <mxPoint x="560" y="310" />
              <mxPoint x="560" y="140" />
            </Array>
          </mxGeometry>
        </mxCell>
        <mxCell id="DRk0Qbnj9rj8NslgTjif-39" value="town" style="swimlane;whiteSpace=wrap;html=1;startSize=40;" vertex="1" parent="1">
          <mxGeometry x="600" y="360" width="200" height="110" as="geometry" />
        </mxCell>
        <mxCell id="DRk0Qbnj9rj8NslgTjif-40" value="id&lt;br style=&quot;font-size: 16px;&quot;&gt;&lt;div style=&quot;font-size: 16px;&quot;&gt;&lt;span style=&quot;background-color: initial; font-size: 16px;&quot;&gt;name&lt;/span&gt;&lt;/div&gt;" style="text;whiteSpace=wrap;html=1;align=center;fontSize=16;" vertex="1" parent="DRk0Qbnj9rj8NslgTjif-39">
          <mxGeometry x="40" y="50" width="120" height="50" as="geometry" />
        </mxCell>
        <mxCell id="DRk0Qbnj9rj8NslgTjif-41" value="" style="endArrow=classic;html=1;rounded=0;exitX=1;exitY=0.5;exitDx=0;exitDy=0;" edge="1" parent="1" source="DRk0Qbnj9rj8NslgTjif-20">
          <mxGeometry width="50" height="50" relative="1" as="geometry">
            <mxPoint x="560" y="390" as="sourcePoint" />
            <mxPoint x="800" y="420" as="targetPoint" />
            <Array as="points">
              <mxPoint x="840" y="160" />
              <mxPoint x="840" y="420" />
            </Array>
          </mxGeometry>
        </mxCell>
        <mxCell id="DRk0Qbnj9rj8NslgTjif-42" value="" style="endArrow=classic;html=1;rounded=0;" edge="1" parent="1">
          <mxGeometry width="50" height="50" relative="1" as="geometry">
            <mxPoint x="320" y="280" as="sourcePoint" />
            <mxPoint x="240" y="160" as="targetPoint" />
            <Array as="points">
              <mxPoint x="280" y="280" />
              <mxPoint x="280" y="160" />
            </Array>
          </mxGeometry>
        </mxCell>
      </root>
    </mxGraphModel>
  </diagram>
</mxfile>
